<?xml version="1.0" encoding="utf-8"?>

<!DOCTYPE svg PUBLIC "-//W3C//DTD SVG 1.1//EN" "http://www.w3.org/Graphics/SVG/1.1/DTD/svg11.dtd">
<svg version="1.1" id="Layer_1" xmlns="http://www.w3.org/2000/svg" xmlns:xlink="http://www.w3.org/1999/xlink" x="0px" y="0px"
	 viewBox="0 0 1129.237 1634.006" enable-background="new 0 0 1129.237 1634.006" xml:space="preserve">
<path d="M1108.829,71.727C586.589-131.071,20.408,254.79,20.408,817c0,562.306,566.196,948.065,1088.421,745.273
	C429.47,1298.461,430.988,334.949,1108.829,71.727z"/>
<g>
	<polygon fill="#FFFFFF" points="238.627,558.534 217.266,528.267 180.224,528.705 202.408,499.037 190.545,463.943 
		225.616,475.873 255.327,453.746 254.818,490.788 285.043,512.206 249.657,523.169 	"/>
	<polygon fill="#FFFFFF" points="566.964,696.27 573.906,706.771 586.492,707.006 578.649,716.853 582.315,728.896 570.527,724.48 
		560.206,731.688 560.763,719.112 550.719,711.524 562.851,708.167 	"/>
	<polygon fill="#FFFFFF" points="314.448,703.996 328.015,694.58 327.95,678.067 341.097,688.06 356.783,682.896 351.341,698.487 
		361.1,711.809 344.589,711.452 334.935,724.85 330.173,709.037 	"/>
	<polygon fill="#FFFFFF" points="552.846,894.858 571.533,925.445 607.323,927.392 584.008,954.616 593.217,989.257 560.12,975.495 
		530.02,994.958 532.881,959.228 505.07,936.616 539.934,928.296 	"/>
	<polygon fill="#FFFFFF" points="535.293,758.073 521.726,758.067 514.029,769.24 509.843,756.334 496.838,752.467 507.818,744.497 
		507.478,730.934 518.45,738.914 531.245,734.399 527.046,747.3 	"/>
	<polygon fill="#FFFFFF" points="458.625,558.383 478.672,539.798 474.727,512.748 498.597,526.071 523.104,513.96 517.81,540.779 
		536.901,560.344 509.759,563.596 497.05,587.799 485.57,562.99 	"/>
	<polygon fill="#FFFFFF" points="278.658,368.341 270.183,355.2 254.553,354.731 264.432,342.61 260.048,327.6 274.629,333.25 
		287.55,324.442 286.681,340.055 299.051,349.622 283.934,353.621 	"/>
	<polygon fill="#FFFFFF" points="165.622,435.03 164.636,417.403 149.557,408.222 166.017,401.838 170.09,384.66 181.247,398.341 
		198.843,396.906 189.279,411.745 196.082,428.036 179.013,423.526 	"/>
	<polygon fill="#FFFFFF" points="150.626,455.12 147.575,468.088 156.528,477.954 143.252,479.059 136.636,490.623 131.482,478.338 
		118.44,475.619 128.531,466.921 127.086,453.677 138.477,460.586 	"/>
	<polygon fill="#FFFFFF" points="274.82,396.553 261.245,412.274 266.5,432.369 247.354,424.317 229.867,435.525 231.608,414.827 
		215.546,401.659 235.768,396.92 243.328,377.574 254.085,395.342 	"/>
	<polygon fill="#FFFFFF" points="438.815,894.196 429.961,907.376 435.8,922.141 420.529,917.794 408.29,927.91 407.706,912.043 
		394.303,903.529 409.213,898.07 413.168,882.693 422.968,895.186 	"/>
	<polygon fill="#FFFFFF" points="588.982,398.178 599.243,402.832 608.895,397.019 607.638,408.216 616.15,415.598 605.113,417.864 
		600.722,428.24 595.157,418.443 583.931,417.474 591.529,409.153 	"/>
	<polygon fill="#FFFFFF" points="869.812,157.442 879.354,151.258 879.668,139.893 888.498,147.056 899.404,143.844 895.32,154.455 
		901.746,163.834 890.392,163.229 883.457,172.239 880.524,161.254 	"/>
	<polygon fill="#FFFFFF" points="111.075,686.112 90.053,654.29 51.921,653.566 75.69,623.74 64.594,587.251 100.305,600.639 
		131.58,578.811 129.882,616.912 160.307,639.91 123.546,650.07 	"/>
	<polygon fill="#FFFFFF" points="458.455,424.769 428.103,409.229 398.094,425.423 403.493,391.754 378.819,368.218 
		412.509,362.949 427.268,332.209 442.69,362.622 476.486,367.159 452.327,391.224 	"/>
	<polygon fill="#FFFFFF" points="816.673,1534.727 813.144,1523.289 801.72,1519.712 811.508,1512.82 811.379,1500.851 
		820.958,1508.03 832.303,1504.209 828.435,1515.537 835.574,1525.146 823.605,1524.968 	"/>
	<polygon fill="#FFFFFF" points="278.983,1010.721 311.312,985.072 308.511,943.9 342.894,966.721 381.185,951.334 370.107,991.086 
		396.573,1022.749 355.343,1024.497 333.408,1059.452 319.006,1020.78 	"/>
	<polygon fill="#FFFFFF" points="401.973,1413.809 399.142,1434.211 414.344,1448.109 394.066,1451.721 385.545,1470.474 
		375.844,1452.304 355.376,1449.995 369.658,1435.154 365.529,1414.975 384.058,1423.972 	"/>
	<polygon fill="#FFFFFF" points="53.332,977.922 61.92,961.737 53.455,945.486 71.502,948.652 84.341,935.58 86.908,953.722 
		103.308,961.893 86.846,969.94 84.143,988.062 71.403,974.893 	"/>
	<polygon fill="#FFFFFF" points="618.229,588.101 594.595,587.172 580.431,606.115 574.011,583.35 551.619,575.733 571.285,562.592 
		571.61,538.942 590.185,553.586 612.778,546.586 604.591,568.777 	"/>
	<polygon fill="#FFFFFF" points="483.741,1356.243 486.841,1389.228 515.772,1405.374 485.359,1418.516 478.943,1451.02 
		457.046,1426.156 424.151,1430.099 441.031,1401.591 427.116,1371.523 459.445,1378.768 	"/>
	<polygon fill="#FFFFFF" points="551.23,814.117 552.206,796.606 538.334,785.875 555.29,781.392 561.209,764.884 570.712,779.624 
		588.242,780.152 577.16,793.745 582.075,810.58 565.722,804.24 	"/>
	<polygon fill="#FFFFFF" points="596.36,148.958 590.129,173.165 606.537,192.021 581.59,193.575 568.726,215.007 559.539,191.761 
		535.181,186.15 554.451,170.229 552.26,145.329 573.356,158.736 	"/>
	<polygon fill="#FFFFFF" points="208.64,1160.294 217.21,1168.522 228.847,1166.128 223.669,1176.821 229.542,1187.149 
		217.773,1185.528 209.766,1194.306 207.669,1182.611 196.847,1177.708 207.322,1172.101 	"/>
	<polygon fill="#FFFFFF" points="628.052,1543.457 639.281,1554.163 654.466,1550.983 647.754,1564.97 655.471,1578.43 
		640.094,1576.368 629.678,1587.867 626.887,1572.606 612.732,1566.253 626.384,1558.882 	"/>
	<polygon fill="#FFFFFF" points="119.571,980.728 124.683,1015.102 155.899,1030.378 124.786,1045.863 119.904,1080.272 
		95.563,1055.467 61.33,1061.457 77.399,1030.642 61.124,999.935 95.396,1005.695 	"/>
	<polygon fill="#FFFFFF" points="259.373,1204.011 275.119,1191.828 274.009,1171.951 290.461,1183.161 309.023,1175.964 
		303.446,1195.074 316.027,1210.503 296.128,1211.104 285.342,1227.838 278.621,1209.098 	"/>
	<polygon fill="#FFFFFF" points="596.041,1058.323 602.428,1083.789 627.028,1092.966 604.781,1106.91 603.656,1133.141 
		583.52,1116.292 558.224,1123.328 568.026,1098.97 553.518,1077.087 579.712,1078.883 	"/>
	<polygon fill="#FFFFFF" points="692.544,215.782 701.851,196.064 690.883,177.218 712.513,179.976 727.047,163.722 
		731.108,185.145 751.058,193.945 731.938,204.427 729.733,226.12 713.856,211.175 	"/>
	<polygon fill="#FFFFFF" points="264.554,1028.146 269.925,1038.547 281.538,1040.02 273.305,1048.342 275.493,1059.842 
		265.034,1054.584 254.774,1060.219 256.542,1048.647 248.012,1040.629 259.565,1038.735 	"/>
	<polygon fill="#FFFFFF" points="623.515,1405.055 630.282,1370.81 605.908,1345.821 640.568,1341.675 656.802,1310.772 
		671.456,1342.454 705.864,1348.344 680.26,1372.071 685.291,1406.614 654.813,1389.596 	"/>
	<polygon fill="#FFFFFF" points="255.67,630.522 283.204,608.496 280.668,573.327 310.125,592.707 342.788,579.428 333.46,613.431 
		356.183,640.393 320.961,642.029 302.34,671.971 289.901,638.978 	"/>
	<polygon fill="#FFFFFF" points="742.065,1305.737 752.309,1322.567 771.981,1323.669 759.14,1338.612 764.171,1357.662 
		745.991,1350.067 729.428,1360.738 731.033,1341.101 715.766,1328.647 734.938,1324.105 	"/>
	<polygon fill="#FFFFFF" points="168.39,997.689 156.311,985.28 139.241,988.195 147.31,972.873 139.263,957.54 156.328,960.479 
		168.424,948.087 170.903,965.226 186.426,972.901 170.892,980.554 	"/>
	<polygon fill="#FFFFFF" points="615.694,1173.745 595.638,1212.258 615.994,1250.615 573.167,1243.441 542.978,1274.654 
		536.567,1231.706 497.553,1212.64 536.417,1193.271 542.494,1150.275 572.925,1181.252 	"/>
	<polygon fill="#FFFFFF" points="94.372,575.074 108.53,546.031 92.632,517.902 124.629,522.393 146.468,498.581 152.085,530.399 
		181.48,543.811 152.954,558.985 149.283,591.087 126.036,568.646 	"/>
	<polygon fill="#FFFFFF" points="565.618,1290.395 578.947,1297.842 592.638,1291.083 589.674,1306.061 600.333,1316.994 
		585.172,1318.803 578.069,1332.318 571.662,1318.459 556.614,1315.88 567.815,1305.504 	"/>
	<polygon fill="#FFFFFF" points="542.264,1516.043 554.132,1527.861 570.594,1524.784 563.023,1539.722 571.036,1554.428 
		554.489,1551.843 542.979,1564.009 540.324,1547.473 525.197,1540.286 540.103,1532.651 	"/>
	<polygon fill="#FFFFFF" points="232.261,1023.611 219.066,1043.54 228.003,1065.708 204.971,1059.318 186.65,1074.668 
		185.61,1050.789 165.35,1038.107 187.739,1029.74 193.539,1006.552 208.416,1025.26 	"/>
	<polygon fill="#FFFFFF" points="892.613,1460.906 898.272,1478.413 915.901,1483.676 901,1494.468 901.443,1512.861 
		886.574,1502.024 869.218,1508.129 874.93,1490.639 863.761,1476.019 882.159,1476.047 	"/>
	<polygon fill="#FFFFFF" points="378.904,1207.939 368.185,1213.025 366.299,1224.739 358.149,1216.116 346.426,1217.941 
		352.108,1207.526 346.749,1196.941 358.411,1199.126 366.822,1190.759 368.347,1202.525 	"/>
	<polygon fill="#FFFFFF" points="715.719,377.15 692.322,342.672 650.656,342.399 676.217,309.493 663.601,269.782 702.795,283.923 
		736.664,259.653 735.326,301.299 768.875,326.01 728.854,337.607 	"/>
	<polygon fill="#FFFFFF" points="389.357,157.21 400.397,161.737 410.385,155.209 409.491,167.108 418.787,174.59 407.194,177.417 
		402.95,188.569 396.68,178.417 384.762,177.828 392.479,168.727 	"/>
	<polygon fill="#FFFFFF" points="841.496,130.277 817.759,103.084 781.902,107.222 800.429,76.244 785.413,43.42 820.6,51.467 
		847.177,27.043 850.397,62.995 881.839,80.724 848.642,94.896 	"/>
	<polygon fill="#FFFFFF" points="48.511,695.186 70.48,695.657 83.323,677.827 89.664,698.866 110.59,705.57 92.54,718.102 
		92.631,740.076 75.134,726.782 54.264,733.658 61.501,712.91 	"/>
	<polygon fill="#FFFFFF" points="901.726,1551.816 892.973,1571.045 903.85,1589.156 882.858,1586.773 868.995,1602.715 
		864.774,1582.014 845.328,1573.756 863.711,1563.344 865.557,1542.298 881.139,1556.565 	"/>
	<polygon fill="#FFFFFF" points="552.817,1017.69 547.47,1031.852 556.104,1044.285 540.983,1043.576 531.827,1055.63 
		527.829,1041.03 513.535,1036.046 526.185,1027.732 526.508,1012.598 538.324,1022.06 	"/>
	<polygon fill="#FFFFFF" points="502.613,140.782 505.412,124.642 493.703,113.186 509.918,110.86 517.194,96.184 524.417,110.887 
		540.623,113.273 528.872,124.685 531.611,140.835 517.126,133.186 	"/>
	<polygon fill="#FFFFFF" points="581.797,120.473 585.04,94.399 565.4,76.946 591.2,71.974 601.73,47.902 614.431,70.902 
		640.579,73.478 622.63,92.665 628.26,118.329 604.465,107.187 	"/>
	<polygon fill="#FFFFFF" points="854.45,1462.168 835.185,1456.367 819.485,1468.947 819.05,1448.833 802.233,1437.788 
		821.229,1431.158 826.536,1411.752 838.711,1427.769 858.808,1426.82 847.337,1443.349 	"/>
	<polygon fill="#FFFFFF" points="331.925,494.594 314.542,480.251 292.871,486.439 301.141,465.474 288.559,446.777 
		311.053,448.163 324.947,430.419 330.58,452.241 351.749,459.972 332.736,472.072 	"/>
	<polygon fill="#FFFFFF" points="725.734,1509.555 736.046,1538.363 765.624,1546.199 741.413,1564.909 743.1,1595.461 
		717.824,1578.217 689.289,1589.262 697.879,1559.894 678.556,1536.169 709.141,1535.263 	"/>
	<polygon fill="#FFFFFF" points="365.473,517.371 351.868,543.466 365.652,569.466 336.63,564.591 316.162,585.735 311.83,556.628 
		285.396,543.695 311.741,530.58 315.872,501.444 336.485,522.446 	"/>
	<polygon fill="#FFFFFF" points="329.334,751.853 304.631,768.456 304.303,798.219 280.879,779.855 252.471,788.742 
		262.698,760.789 245.468,736.518 275.213,737.606 292.972,713.719 301.129,742.344 	"/>
	<polygon fill="#FFFFFF" points="812.393,193.863 824.502,184.408 823.578,169.074 836.311,177.668 850.609,172.051 846.37,186.817 
		856.131,198.679 840.778,199.211 832.512,212.159 827.263,197.722 	"/>
	<polygon fill="#FFFFFF" points="443.77,1156.389 451.013,1184.888 478.596,1195.077 453.731,1210.772 452.564,1240.153 
		429.953,1221.355 401.649,1229.324 412.54,1202.011 396.215,1177.556 425.556,1179.473 	"/>
	<polygon fill="#FFFFFF" points="593.61,1538.198 591.44,1509.943 566.933,1495.714 593.134,1484.918 599.095,1457.214 
		617.458,1478.796 645.648,1475.904 630.797,1500.038 642.259,1525.955 614.716,1519.288 	"/>
	<polygon fill="#FFFFFF" points="454.151,1455.303 466.301,1474.194 488.751,1474.896 474.539,1492.289 480.81,1513.857 
		459.876,1505.715 441.301,1518.344 442.575,1495.919 424.824,1482.155 446.546,1476.438 	"/>
	<polygon fill="#FFFFFF" points="640.761,1291.337 629.857,1294.149 625.991,1304.726 619.947,1295.224 608.693,1294.816 
		615.862,1286.132 612.772,1275.302 623.247,1279.437 632.592,1273.152 631.896,1284.392 	"/>
	<polygon fill="#FFFFFF" points="238.619,876.436 246.166,853.801 231.799,834.752 255.658,834.935 269.335,815.385 
		276.534,838.133 299.354,845.099 279.944,858.974 280.37,882.83 261.176,868.658 	"/>
	<polygon fill="#FFFFFF" points="428.236,198.23 430.184,215.026 445.124,222.942 429.753,229.985 426.84,246.64 415.392,234.198 
		398.652,236.575 406.948,221.842 399.515,206.656 416.09,209.993 	"/>
	<polygon fill="#FFFFFF" points="78.303,773.009 62.725,774.588 55.195,788.315 48.88,773.988 33.497,771.068 45.172,760.634 
		43.196,745.102 56.726,752.982 70.887,746.302 67.574,761.605 	"/>
	<polygon fill="#FFFFFF" points="664.628,455.888 653.317,452.649 644.238,460.131 643.822,448.373 633.901,442.05 644.955,438.021 
		647.903,426.632 655.15,435.9 666.893,435.184 660.318,444.94 	"/>
	<polygon fill="#FFFFFF" points="755.274,1492.618 764.821,1485.901 764.7,1474.228 774.038,1481.232 785.102,1477.51 
		781.327,1488.556 788.286,1497.928 776.614,1497.751 769.851,1507.265 766.413,1496.11 	"/>
	<polygon fill="#FFFFFF" points="174.797,850.81 184.391,844.409 184.558,832.878 193.609,840.024 204.628,836.619 200.629,847.436 
		207.272,856.863 195.749,856.402 188.836,865.634 185.713,854.532 	"/>
	<polygon fill="#FFFFFF" points="202.514,329.432 212.92,334.528 223.018,328.845 221.387,340.317 229.912,348.164 218.498,350.158 
		213.669,360.691 208.246,350.451 196.736,349.113 204.799,340.791 	"/>
	<polygon fill="#FFFFFF" points="303.668,408.814 318.185,392.541 313.009,371.357 332.972,380.135 351.519,368.667 349.34,390.365 
		365.978,404.461 344.669,409.093 336.404,429.273 325.414,410.438 	"/>
	<polygon fill="#FFFFFF" points="755.379,144.256 770.623,144.237 779.251,131.669 783.979,146.162 798.598,150.483 
		786.276,159.458 786.684,174.698 774.34,165.752 759.972,170.849 764.666,156.345 	"/>
	<polygon fill="#FFFFFF" points="99.697,785.697 125.723,784.204 139.247,761.919 148.709,786.209 174.083,792.185 153.906,808.69 
		156.063,834.669 134.131,820.579 110.09,830.659 116.713,805.446 	"/>
	<polygon fill="#FFFFFF" points="428.373,854.389 412.467,844.676 395.449,852.272 399.772,834.144 387.289,820.306 
		405.866,818.815 415.169,802.667 422.327,819.874 440.56,823.732 426.407,835.857 	"/>
	<polygon fill="#FFFFFF" points="514.107,1447.265 535.557,1414.163 520.448,1377.727 558.559,1387.898 588.543,1362.269 
		590.646,1401.658 624.286,1422.255 587.476,1436.427 578.282,1474.785 553.428,1444.155 	"/>
	<polygon fill="#FFFFFF" points="420.551,1336.309 408.089,1357.13 418.175,1379.2 394.522,1373.781 376.649,1390.194 
		374.493,1366.024 353.361,1354.098 375.681,1344.579 380.494,1320.795 396.445,1339.082 	"/>
	<polygon fill="#FFFFFF" points="535.313,1483.028 530.956,1493.788 537.35,1503.477 525.77,1502.658 518.531,1511.733 
		515.731,1500.467 504.863,1496.387 514.713,1490.243 515.235,1478.646 524.122,1486.115 	"/>
	<polygon fill="#FFFFFF" points="711.736,1316.756 691.108,1302.123 667.359,1310.82 674.901,1286.68 659.291,1266.781 
		684.58,1266.494 698.681,1245.499 706.769,1269.462 731.094,1276.385 710.803,1291.482 	"/>
	<polygon fill="#FFFFFF" points="165.612,1262.974 200.008,1243.744 203.667,1204.507 232.585,1231.277 271.031,1222.632 
		254.507,1258.407 274.61,1292.3 235.48,1287.64 209.458,1317.233 201.798,1278.578 	"/>
	<polygon fill="#FFFFFF" points="129.822,745.313 148.525,708.753 129.011,672.619 169.562,679.11 197.897,649.385 204.255,689.956 
		241.281,707.719 204.66,726.303 199.208,767.005 170.217,737.92 	"/>
	<polygon fill="#FFFFFF" points="369.275,802.711 357.752,812.415 359.212,827.409 346.423,819.448 332.614,825.47 336.233,810.846 
		326.238,799.575 341.265,798.498 348.896,785.509 354.564,799.467 	"/>
	<polygon fill="#FFFFFF" points="695.702,245.318 664.145,262.815 660.668,298.729 634.276,274.124 599.045,281.915 
		614.291,249.212 595.994,218.112 631.808,222.506 655.731,195.495 662.619,230.913 	"/>
	<polygon fill="#FFFFFF" points="366.97,757.733 380.422,748.179 380.178,731.681 393.421,741.523 409.036,736.192 403.769,751.828 
		413.663,765.032 397.165,764.854 387.665,778.345 382.736,762.599 	"/>
	<polygon fill="#FFFFFF" points="137.208,1071.301 151.538,1100.214 183.48,1104.799 160.411,1127.363 165.92,1159.159 
		137.332,1144.192 108.795,1159.257 114.195,1127.442 91.049,1104.957 122.975,1100.262 	"/>
	<polygon fill="#FFFFFF" points="547.119,407.49 533.855,435.981 549.805,463.059 518.61,459.248 497.786,482.785 491.771,451.939 
		462.95,439.408 490.428,424.155 493.44,392.873 516.437,414.292 	"/>
	<polygon fill="#FFFFFF" points="225.796,1145.346 212.557,1134.597 196.198,1139.409 202.329,1123.497 192.697,1109.426 
		209.725,1110.34 220.132,1096.831 224.524,1113.308 240.588,1119.031 226.274,1128.3 	"/>
	<polygon fill="#FFFFFF" points="298.013,1320.705 310.606,1296.349 297.681,1272.167 324.737,1276.618 343.742,1256.853 
		347.87,1283.96 372.54,1295.926 348.035,1308.229 344.278,1335.389 325.005,1315.886 	"/>
	<polygon fill="#FFFFFF" points="986.851,1582.176 992.806,1571.274 987.202,1560.187 999.411,1562.483 1008.223,1553.727 
		1009.813,1566.047 1020.863,1571.723 1009.637,1577.042 1007.654,1589.305 999.126,1580.272 	"/>
	<polygon fill="#FFFFFF" points="254.178,701.384 245.096,683.986 225.615,681.604 239.355,667.591 235.601,648.328 
		253.174,657.065 270.334,647.541 267.455,666.954 281.815,680.332 262.463,683.593 	"/>
	<polygon fill="#FFFFFF" points="512.132,1076.56 520.283,1107.339 550.258,1118.073 523.505,1135.337 522.558,1167.163 
		497.873,1147.053 467.312,1155.987 478.809,1126.296 460.868,1099.992 492.659,1101.751 	"/>
	<polygon fill="#FFFFFF" points="453.468,128.032 460.65,138.177 473.079,138.012 465.65,147.978 469.648,159.748 457.874,155.762 
		447.916,163.201 448.068,150.772 437.916,143.6 449.784,139.904 	"/>
	<polygon fill="#FFFFFF" points="397.027,571.196 411.073,580.583 426.769,574.335 422.182,590.594 432.975,603.591 
		416.094,604.252 407.068,618.533 401.223,602.683 384.852,598.512 398.12,588.055 	"/>
	<polygon fill="#FFFFFF" points="396.673,632.371 409.786,651.234 432.757,651.125 418.87,669.424 426.072,691.238 404.377,683.686 
		385.857,697.276 386.335,674.309 367.687,660.894 389.678,654.252 	"/>
	<polygon fill="#FFFFFF" points="344.444,241.929 337.444,227.907 321.925,225.724 333.097,214.734 330.378,199.299 
		344.283,206.529 358.122,199.173 355.543,214.631 366.815,225.52 351.316,227.844 	"/>
	<polygon fill="#FFFFFF" points="331.824,1171.697 297.358,1149.88 259.846,1165.905 269.944,1126.384 243.112,1095.659 
		283.82,1093.051 304.749,1058.038 319.809,1095.947 359.576,1105.032 328.176,1131.07 	"/>
	<polygon fill="#FFFFFF" points="1049.597,1575.608 1040.885,1566.235 1028.224,1568.098 1034.446,1556.916 1028.762,1545.45 
		1041.32,1547.913 1050.468,1538.964 1052.006,1551.668 1063.344,1557.603 1051.737,1562.992 	"/>
	<polygon fill="#FFFFFF" points="35.462,833.073 42.146,820.925 35.929,808.532 49.548,811.135 59.413,801.392 61.146,815.149 
		73.46,821.521 60.912,827.42 58.657,841.101 49.17,830.99 	"/>
	<polygon fill="#FFFFFF" points="444.517,252.279 468.108,273.39 498.873,265.925 486.085,294.885 502.692,321.837 471.197,318.625 
		450.696,342.747 444.019,311.802 414.742,299.758 442.11,283.845 	"/>
	<polygon fill="#FFFFFF" points="344.775,848.406 356.117,874.85 384.331,880.499 362.686,899.457 366.032,928.036 341.313,913.308 
		315.167,925.322 321.535,897.262 302.029,876.108 330.684,873.493 	"/>
	<polygon fill="#FFFFFF" points="632.71,362.959 613.585,359.36 599.778,373.074 597.291,353.773 579.981,344.879 597.569,336.55 
		600.679,317.339 614.036,331.492 633.267,328.513 623.934,345.59 	"/>
	<polygon fill="#FFFFFF" points="970.973,1585.026 946.741,1566.638 917.857,1576.176 927.856,1547.448 909.86,1522.924 
		940.272,1523.557 958.034,1498.863 966.83,1527.982 995.804,1537.244 970.828,1554.608 	"/>
	<polygon fill="#FFFFFF" points="664.812,1175.534 653.751,1179.024 650.357,1190.114 643.619,1180.674 632.023,1180.872 
		638.919,1171.547 635.147,1160.58 646.147,1164.257 655.412,1157.28 655.314,1168.878 	"/>
	<polygon fill="#FFFFFF" points="502.086,706.97 483.425,673.048 444.902,669.19 471.397,640.96 463.162,603.13 498.198,619.604 
		531.632,600.083 526.79,638.495 555.688,664.259 517.66,671.525 	"/>
	<polygon fill="#FFFFFF" points="625.786,1212.026 648.207,1210.844 659.944,1191.704 667.997,1212.662 689.827,1217.91 
		672.383,1232.045 674.138,1254.429 655.304,1242.207 634.558,1250.792 640.362,1229.103 	"/>
	<polygon fill="#FFFFFF" points="627.049,486.854 637.19,494.073 648.886,489.812 645.154,501.688 652.821,511.494 640.373,511.615 
		633.416,521.936 629.455,510.135 617.488,506.708 627.488,499.294 	"/>
	<polygon fill="#FFFFFF" points="173.263,931.838 167.041,917.479 151.686,914.464 163.419,904.11 161.542,888.574 175.015,896.534 
		189.21,889.947 185.803,905.221 196.454,916.686 180.876,918.166 	"/>
	<polygon fill="#FFFFFF" points="803.222,1376.469 786.031,1407.906 802.182,1439.89 766.971,1433.255 741.544,1458.499 
		736.973,1422.961 705.107,1406.579 737.493,1391.25 743.226,1355.881 767.813,1381.946 	"/>
	<polygon fill="#FFFFFF" points="611.726,466.668 595.634,487.035 603.289,511.837 578.947,502.826 557.724,517.771 
		558.771,491.835 538,476.27 562.99,469.251 571.375,444.687 585.772,466.284 	"/>
	<polygon fill="#FFFFFF" points="595.327,622.465 595.098,638.116 607.862,647.177 592.906,651.796 588.233,666.734 
		579.218,653.938 563.567,654.109 572.951,641.582 567.951,626.75 582.766,631.803 	"/>
	<polygon fill="#FFFFFF" points="401.334,952.658 444.886,955.478 471.899,921.199 482.675,963.491 523.624,978.589 
		486.732,1001.907 485.027,1045.517 451.45,1017.636 409.447,1029.491 425.587,988.941 	"/>
	<polygon fill="#FFFFFF" points="546.639,347.418 544.545,359.841 553.591,368.609 541.129,370.456 535.586,381.769 
		529.978,370.488 517.505,368.712 526.502,359.892 524.337,347.481 535.505,353.312 	"/>
	<polygon fill="#FFFFFF" points="462.652,519.5 424.869,518.105 402.299,548.438 391.951,512.073 356.127,499.982 387.514,478.903 
		387.944,441.096 417.691,464.434 453.779,453.159 440.777,488.661 	"/>
	<polygon fill="#FFFFFF" points="898.247,45.426 912.03,44.13 918.776,32.041 924.268,44.748 937.85,47.428 927.461,56.579 
		929.109,70.324 917.197,63.271 904.633,69.086 907.659,55.577 	"/>
	<polygon fill="#FFFFFF" points="635.066,1114.312 638.234,1126.387 649.977,1130.623 639.471,1137.367 639.071,1149.844 
		629.411,1141.937 617.421,1145.413 621.956,1133.782 614.946,1123.453 627.409,1124.171 	"/>
	<polygon fill="#FFFFFF" points="327.691,1235.635 318.588,1244.392 320.642,1256.855 309.501,1250.905 298.282,1256.71 
		300.499,1244.275 291.512,1235.399 304.023,1233.664 309.687,1222.374 315.203,1233.737 	"/>
	<polygon fill="#FFFFFF" points="581.124,882.155 570.266,872.227 555.932,875.543 562.019,862.149 554.435,849.541 
		569.055,851.191 578.703,840.082 581.652,854.497 595.198,860.239 582.4,867.498 	"/>
	<polygon fill="#FFFFFF" points="253.999,261.761 270.421,266.563 283.687,255.757 284.195,272.86 298.572,282.137 282.463,287.905 
		278.082,304.445 267.619,290.907 250.535,291.852 260.177,277.717 	"/>
	<polygon fill="#FFFFFF" points="663.299,409.589 661.742,397.294 650.73,391.606 661.942,386.326 663.949,374.096 672.435,383.127 
		684.687,381.256 678.72,392.119 684.285,403.192 672.111,400.874 	"/>
	<polygon fill="#FFFFFF" points="466.815,1241.318 487.392,1250.082 506.277,1238.099 504.301,1260.377 521.533,1274.635 
		499.734,1279.64 491.5,1300.434 480.004,1281.249 457.682,1279.843 472.376,1262.981 	"/>
	<polygon fill="#FFFFFF" points="515.628,817.533 515.536,848.319 540.844,865.848 511.536,875.273 502.685,904.76 484.664,879.799 
		453.886,880.493 472.057,855.641 461.885,826.583 491.136,836.185 	"/>
	<polygon fill="#FFFFFF" points="89.644,832.976 105.467,866.573 142.114,872.585 115.051,898.016 120.658,934.728 88.109,916.848 
		54.927,933.525 61.873,897.043 35.758,870.639 72.601,865.972 	"/>
	<polygon fill="#FFFFFF" points="324.253,256.735 355.441,272.718 386.29,256.087 380.726,290.688 406.076,314.888 371.449,320.289 
		356.267,351.876 340.43,320.612 305.698,315.935 330.537,291.212 	"/>
	<polygon fill="#FFFFFF" points="687.945,39.582 716.116,55.159 744.919,40.784 738.809,72.389 761.381,95.34 729.434,99.296 
		714.582,127.856 700.948,98.696 669.196,93.396 692.716,71.417 	"/>
	<polygon fill="#FFFFFF" points="453.238,706.102 459.595,717.585 472.658,718.858 463.701,728.452 466.527,741.269 
		454.635,735.715 443.318,742.363 444.925,729.337 435.106,720.629 447.991,718.132 	"/>
	<polygon fill="#FFFFFF" points="225.217,779.967 225.145,791.244 234.395,797.697 223.647,801.114 220.368,811.905 
		213.798,802.739 202.522,802.955 209.209,793.873 205.518,783.216 216.222,786.77 	"/>
	<polygon fill="#FFFFFF" points="190.034,590.397 203.916,587.6 209.482,574.579 216.432,586.917 230.535,588.187 220.948,598.609 
		224.099,612.415 211.225,606.518 199.068,613.781 200.698,599.714 	"/>
	<polygon fill="#FFFFFF" points="456.125,798.982 460.148,787.737 453.165,778.047 465.104,778.398 472.161,768.763 
		475.516,780.225 486.861,783.959 476.996,790.693 476.95,802.636 467.498,795.335 	"/>
	<polygon fill="#FFFFFF" points="161.647,1221.89 153.054,1211.713 139.798,1213.022 146.822,1201.704 141.48,1189.502 
		154.415,1192.684 164.369,1183.833 165.34,1197.118 176.833,1203.851 164.498,1208.879 	"/>
	<polygon fill="#FFFFFF" points="678.548,1514.949 665.576,1487.027 635.22,1481.884 657.766,1460.918 653.277,1430.459 
		680.184,1445.423 707.765,1431.741 701.848,1461.955 723.384,1483.958 692.82,1487.668 	"/>
	<polygon fill="#FFFFFF" points="496.011,1328.669 514.877,1323.438 521.264,1304.932 532.068,1321.258 551.643,1321.614 
		539.454,1336.934 545.165,1355.661 526.828,1348.803 510.782,1360.021 511.638,1340.462 	"/>
	<polygon fill="#FFFFFF" points="222.542,903.775 248.859,922.99 279.608,912.205 269.465,943.171 289.225,969.082 256.64,969.005 
		238.103,995.805 228.107,964.79 196.891,955.443 223.298,936.352 	"/>
	<polygon fill="#FFFFFF" points="503.041,265.965 534.719,259.916 547.695,230.392 563.236,258.65 595.325,261.868 573.252,285.381 
		580.108,316.893 550.925,303.167 523.074,319.425 527.11,287.429 	"/>
	<polygon fill="#FFFFFF" points="644.299,117.528 659.863,132.877 681.33,128.758 671.541,148.302 682.093,167.446 660.48,164.176 
		645.534,180.126 641.965,158.561 622.176,149.275 641.583,139.217 	"/>
	<polygon fill="#FFFFFF" points="442.66,1343.266 441.454,1328.276 428.422,1320.771 442.306,1314.992 445.417,1300.279 
		455.203,1311.697 470.157,1310.109 462.322,1322.945 468.454,1336.677 453.824,1333.191 	"/>
	<polygon fill="#FFFFFF" points="470.482,192.149 488.455,195.514 501.416,182.617 503.769,200.749 520.04,209.091 503.522,216.932 
		500.617,234.985 488.055,221.698 469.989,224.514 478.743,208.461 	"/>
	<polygon fill="#FFFFFF" points="251.008,1318.844 260.143,1328.043 272.899,1325.733 266.973,1337.264 273.112,1348.683 
		260.314,1346.609 251.351,1355.976 249.369,1343.165 237.69,1337.535 249.262,1331.69 	"/>
	<polygon fill="#FFFFFF" points="763.997,212.822 783.874,224.656 804.892,214.991 799.779,237.552 815.467,254.554 792.43,256.664 
		781.107,276.838 771.982,255.58 749.297,251.046 766.695,235.798 	"/>
	<polygon fill="#FFFFFF" points="352.6,1400.13 326.549,1400.569 312.142,1422.278 303.675,1397.637 278.576,1390.643 
		299.394,1374.976 298.29,1348.945 319.624,1363.902 344.04,1354.808 336.406,1379.72 	"/>
	<polygon fill="#FFFFFF" points="826.538,1595.587 807.418,1594.08 795.337,1608.977 790.862,1590.327 772.961,1583.441 
		789.315,1573.421 790.332,1554.269 804.915,1566.726 823.445,1561.775 816.104,1579.494 	"/>
	<polygon fill="#FFFFFF" points="985.164,96.814 993.085,78.444 982.443,61.504 1002.362,63.361 1015.184,48.005 1019.573,67.523 
		1038.14,74.972 1020.934,85.178 1019.587,105.138 1004.563,91.928 	"/>
	<polygon fill="#FFFFFF" points="387.596,1250.695 403.414,1258.087 418.47,1249.247 416.328,1266.574 429.387,1278.162 
		412.246,1281.479 405.261,1297.48 396.809,1282.203 379.433,1280.505 391.351,1267.746 	"/>
	<polygon fill="#FFFFFF" points="448.717,1149.796 410.242,1130.677 372.68,1151.533 378.974,1109.033 347.531,1079.754 
		389.896,1072.607 408.025,1033.656 427.915,1071.738 470.562,1076.943 440.489,1107.627 	"/>
	<polygon fill="#FFFFFF" points="903.277,119.264 917.229,109.888 917.414,93.079 930.643,103.451 946.686,98.433 940.91,114.219 
		950.639,127.926 933.841,127.311 923.811,140.8 919.206,124.634 	"/>
	<polygon fill="#FFFFFF" points="609.384,1017.754 605.718,1029.297 613.148,1038.86 601.038,1038.94 594.239,1048.961 
		590.42,1037.469 578.788,1034.099 588.538,1026.916 588.149,1014.812 597.993,1021.865 	"/>
</g>
</svg>
