<?xml version="1.0" encoding="utf-8"?>

<!DOCTYPE svg PUBLIC "-//W3C//DTD SVG 1.1//EN" "http://www.w3.org/Graphics/SVG/1.1/DTD/svg11.dtd">
<svg version="1.1" id="Layer_1" xmlns="http://www.w3.org/2000/svg" xmlns:xlink="http://www.w3.org/1999/xlink" x="0px" y="0px"
	 viewBox="0 0 1634.011 1634.011" enable-background="new 0 0 1634.011 1634.011" xml:space="preserve">
<g>
	<g>
		<polygon points="1339.02,1269.218 1393.143,894.554 1308.934,1299.771 1333.682,1304.135 1437.257,1322.398 		"/>
	</g>
	<g>
		<polygon points="1252.564,1352.995 1370.924,993.421 1217.63,1377.859 1241.243,1386.454 1340.074,1422.425 		"/>
	</g>
	<g>
		<polygon points="1152.873,1420.486 1331.875,1086.928 1114.152,1438.906 1135.915,1451.471 1226.997,1504.057 		"/>
	</g>
	<g>
		<polygon points="1042.977,1469.64 1277.181,1172.234 1001.646,1481.057 1020.896,1497.21 1101.463,1564.814 		"/>
	</g>
	<g>
		<polygon points="926.215,1498.965 1208.505,1246.746 883.529,1503.031 899.682,1522.281 967.286,1602.848 		"/>
	</g>
	<g>
		<polygon points="806.135,1507.568 1127.934,1308.2 763.392,1504.161 775.956,1525.923 828.543,1617.006 		"/>
	</g>
	<g>
		<polygon points="686.385,1495.189 1037.916,1354.73 644.883,1484.411 653.478,1508.025 689.449,1606.855 		"/>
	</g>
	<g>
		<polygon points="570.604,1462.204 941.185,1384.921 531.604,1444.383 535.968,1469.13 554.231,1572.706 		"/>
	</g>
	<g>
		<polygon points="462.31,1409.615 840.68,1397.857 426.997,1385.292 426.997,1410.421 426.997,1515.594 		"/>
	</g>
	<g>
		<polygon points="364.793,1339.02 739.457,1393.143 334.24,1308.934 329.877,1333.682 311.613,1437.257 		"/>
	</g>
	<g>
		<polygon points="281.017,1252.564 640.59,1370.924 256.152,1217.63 247.557,1241.243 211.586,1340.074 		"/>
	</g>
	<g>
		<polygon points="213.526,1152.873 547.083,1331.875 195.105,1114.152 182.54,1135.915 129.954,1226.997 		"/>
	</g>
	<g>
		<polygon points="164.371,1042.977 461.778,1277.181 152.954,1001.646 136.801,1020.896 69.197,1101.463 		"/>
	</g>
	<g>
		<polygon points="135.046,926.215 387.266,1208.505 130.98,883.529 111.73,899.682 31.163,967.286 		"/>
	</g>
	<g>
		<polygon points="126.443,806.135 325.811,1127.934 129.851,763.392 108.088,775.956 17.006,828.543 		"/>
	</g>
	<g>
		<polygon points="138.822,686.385 279.281,1037.916 149.6,644.883 125.986,653.478 27.156,689.449 		"/>
	</g>
	<g>
		<polygon points="171.807,570.604 249.09,941.185 189.628,531.604 164.881,535.968 61.306,554.231 		"/>
	</g>
	<g>
		<polygon points="224.396,462.31 236.154,840.68 248.719,426.997 223.59,426.997 118.417,426.997 		"/>
	</g>
	<g>
		<polygon points="294.991,364.793 240.868,739.457 325.077,334.24 300.329,329.877 196.754,311.613 		"/>
	</g>
	<g>
		<polygon points="381.448,281.017 263.087,640.59 416.382,256.152 392.768,247.557 293.938,211.586 		"/>
	</g>
	<g>
		<polygon points="481.138,213.526 302.136,547.083 519.859,195.105 498.097,182.54 407.014,129.954 		"/>
	</g>
	<g>
		<polygon points="591.034,164.371 356.83,461.778 632.365,152.954 613.115,136.801 532.548,69.197 		"/>
	</g>
	<g>
		<polygon points="707.796,135.046 425.506,387.266 750.482,130.98 734.329,111.73 666.725,31.163 		"/>
	</g>
	<g>
		<polygon points="827.876,126.443 506.077,325.811 870.62,129.851 858.055,108.088 805.468,17.006 		"/>
	</g>
	<g>
		<polygon points="947.626,138.822 596.096,279.281 989.128,149.6 980.534,125.986 944.562,27.156 		"/>
	</g>
	<g>
		<polygon points="1063.407,171.807 692.827,249.09 1102.407,189.628 1098.043,164.881 1079.78,61.306 		"/>
	</g>
	<g>
		<polygon points="1171.701,224.396 793.331,236.154 1207.014,248.719 1207.014,223.59 1207.014,118.417 		"/>
	</g>
	<g>
		<polygon points="1269.218,294.991 894.554,240.868 1299.771,325.077 1304.135,300.329 1322.398,196.754 		"/>
	</g>
	<g>
		<polygon points="1352.995,381.448 993.421,263.087 1377.859,416.382 1386.454,392.768 1422.425,293.938 		"/>
	</g>
	<g>
		<polygon points="1420.486,481.138 1086.928,302.136 1438.906,519.859 1451.471,498.097 1504.057,407.014 		"/>
	</g>
	<g>
		<polygon points="1469.64,591.034 1172.234,356.83 1481.057,632.365 1497.21,613.115 1564.814,532.548 		"/>
	</g>
	<g>
		<polygon points="1498.965,707.796 1246.746,425.506 1503.031,750.482 1522.281,734.329 1602.848,666.725 		"/>
	</g>
	<g>
		<polygon points="1507.568,827.876 1308.2,506.077 1504.161,870.62 1525.923,858.055 1617.006,805.468 		"/>
	</g>
	<g>
		<polygon points="1495.189,947.626 1354.73,596.096 1484.411,989.128 1508.025,980.534 1606.855,944.562 		"/>
	</g>
	<g>
		<polygon points="1462.204,1063.407 1384.921,692.827 1444.383,1102.407 1469.13,1098.043 1572.706,1079.78 		"/>
	</g>
	<g>
		<polygon points="1409.615,1171.701 1397.857,793.331 1385.292,1207.014 1410.421,1207.014 1515.594,1207.014 		"/>
	</g>
</g>
</svg>
